<mxfile host="app.diagrams.net" modified="2021-09-18T17:58:40.971Z" agent="5.0 (Windows NT 10.0; Win64; x64) AppleWebKit/537.36 (KHTML, like Gecko) Chrome/93.0.4577.82 Safari/537.36" etag="DcPblelGT2LMc5fFVg6W" version="15.2.9" type="github">
  <diagram id="U6vCikzFW0vZ8T6bcUkg" name="Page-1">
    <mxGraphModel dx="1422" dy="762" grid="1" gridSize="10" guides="1" tooltips="1" connect="1" arrows="1" fold="1" page="1" pageScale="1" pageWidth="827" pageHeight="1169" math="0" shadow="0">
      <root>
        <mxCell id="0" />
        <mxCell id="1" parent="0" />
        <mxCell id="kpFDA7r_jM3g05SK5Hbd-9" value="" style="edgeStyle=orthogonalEdgeStyle;rounded=0;orthogonalLoop=1;jettySize=auto;html=1;endArrow=none;endFill=0;" edge="1" parent="1" source="kpFDA7r_jM3g05SK5Hbd-1" target="kpFDA7r_jM3g05SK5Hbd-5">
          <mxGeometry relative="1" as="geometry" />
        </mxCell>
        <mxCell id="kpFDA7r_jM3g05SK5Hbd-1" value="Item" style="swimlane;fontStyle=1;align=center;verticalAlign=top;childLayout=stackLayout;horizontal=1;startSize=26;horizontalStack=0;resizeParent=1;resizeParentMax=0;resizeLast=0;collapsible=1;marginBottom=0;" vertex="1" collapsed="1" parent="1">
          <mxGeometry x="360" y="280" width="60" height="26" as="geometry">
            <mxRectangle x="360" y="280" width="160" height="86" as="alternateBounds" />
          </mxGeometry>
        </mxCell>
        <mxCell id="kpFDA7r_jM3g05SK5Hbd-2" value="+ field: type" style="text;strokeColor=none;fillColor=none;align=left;verticalAlign=top;spacingLeft=4;spacingRight=4;overflow=hidden;rotatable=0;points=[[0,0.5],[1,0.5]];portConstraint=eastwest;" vertex="1" parent="kpFDA7r_jM3g05SK5Hbd-1">
          <mxGeometry y="26" width="60" height="26" as="geometry" />
        </mxCell>
        <mxCell id="kpFDA7r_jM3g05SK5Hbd-3" value="" style="line;strokeWidth=1;fillColor=none;align=left;verticalAlign=middle;spacingTop=-1;spacingLeft=3;spacingRight=3;rotatable=0;labelPosition=right;points=[];portConstraint=eastwest;" vertex="1" parent="kpFDA7r_jM3g05SK5Hbd-1">
          <mxGeometry y="52" width="60" height="8" as="geometry" />
        </mxCell>
        <mxCell id="kpFDA7r_jM3g05SK5Hbd-4" value="+ method(type): type" style="text;strokeColor=none;fillColor=none;align=left;verticalAlign=top;spacingLeft=4;spacingRight=4;overflow=hidden;rotatable=0;points=[[0,0.5],[1,0.5]];portConstraint=eastwest;" vertex="1" parent="kpFDA7r_jM3g05SK5Hbd-1">
          <mxGeometry y="60" width="60" height="26" as="geometry" />
        </mxCell>
        <object label="ItemGroup" sap_doc_link="https://help.sap.com/viewer/68a2e87fb29941b5bf959a184d9c6727/9.3/pt-BR/45221d4373c80108e10000000a114a6b.html" id="kpFDA7r_jM3g05SK5Hbd-5">
          <mxCell style="swimlane;fontStyle=1;align=center;verticalAlign=top;childLayout=stackLayout;horizontal=1;startSize=26;horizontalStack=0;resizeParent=1;resizeParentMax=0;resizeLast=0;collapsible=1;marginBottom=0;" vertex="1" collapsed="1" parent="1">
            <mxGeometry x="40" y="40" width="100" height="26" as="geometry">
              <mxRectangle x="40" y="40" width="160" height="86" as="alternateBounds" />
            </mxGeometry>
          </mxCell>
        </object>
        <mxCell id="kpFDA7r_jM3g05SK5Hbd-6" value="+ field: type" style="text;strokeColor=none;fillColor=none;align=left;verticalAlign=top;spacingLeft=4;spacingRight=4;overflow=hidden;rotatable=0;points=[[0,0.5],[1,0.5]];portConstraint=eastwest;" vertex="1" parent="kpFDA7r_jM3g05SK5Hbd-5">
          <mxGeometry y="26" width="100" height="26" as="geometry" />
        </mxCell>
        <mxCell id="kpFDA7r_jM3g05SK5Hbd-7" value="" style="line;strokeWidth=1;fillColor=none;align=left;verticalAlign=middle;spacingTop=-1;spacingLeft=3;spacingRight=3;rotatable=0;labelPosition=right;points=[];portConstraint=eastwest;" vertex="1" parent="kpFDA7r_jM3g05SK5Hbd-5">
          <mxGeometry y="52" width="100" height="8" as="geometry" />
        </mxCell>
        <mxCell id="kpFDA7r_jM3g05SK5Hbd-8" value="+ method(type): type" style="text;strokeColor=none;fillColor=none;align=left;verticalAlign=top;spacingLeft=4;spacingRight=4;overflow=hidden;rotatable=0;points=[[0,0.5],[1,0.5]];portConstraint=eastwest;" vertex="1" parent="kpFDA7r_jM3g05SK5Hbd-5">
          <mxGeometry y="60" width="100" height="26" as="geometry" />
        </mxCell>
      </root>
    </mxGraphModel>
  </diagram>
</mxfile>
